<?xml version="1.0" encoding="utf-8"?>
<!-- Generator: Adobe Illustrator 24.1.2, SVG Export Plug-In . SVG Version: 6.00 Build 0)  -->
<svg version="1.1" id="Layer_1" xmlns="http://www.w3.org/2000/svg" xmlns:xlink="http://www.w3.org/1999/xlink" x="0px" y="0px"
	 viewBox="0 0 665.9 698.3" style="enable-background:new 0 0 665.9 698.3;" xml:space="preserve">
<style type="text/css">
	.st0{fill:#FFFFFF;}
	.st1{fill:#E11D37;}
	.st2{fill:#C22035;}
	.st3{fill:#14254C;}
	.st4{fill:#E21E36;}
	.st5{fill:#FAB16A;}
	.st6{fill:none;}
	.st7{fill:#DC7F1B;}
	.st8{fill:#15254B;}
	.st9{fill:#F27043;}
	.st10{fill:#0A183D;}
	.st11{fill-rule:evenodd;clip-rule:evenodd;fill:#F27043;}
	.st12{fill-rule:evenodd;clip-rule:evenodd;fill:#14254C;}
	.st13{fill-rule:evenodd;clip-rule:evenodd;fill:#30495C;}
	.st14{fill-rule:evenodd;clip-rule:evenodd;fill:#FAB16A;}
	.st15{fill-rule:evenodd;clip-rule:evenodd;fill:#DC7F1B;}
	.st16{fill:#67C08B;}
	.st17{fill-rule:evenodd;clip-rule:evenodd;fill:#67C08B;}
	.st18{fill:#84CEF2;}
	.st19{fill:#0C1B38;}
	.st20{fill-rule:evenodd;clip-rule:evenodd;fill:#31475C;}
	.st21{fill:#0B0204;}
	.st22{fill-rule:evenodd;clip-rule:evenodd;fill:#84CEF2;}
	.st23{fill:#0C2749;}
	.st24{fill-rule:evenodd;clip-rule:evenodd;fill:#E21E36;}
	.st25{fill:#41B983;}
	.st26{fill:#2A374B;}
</style>
<g>
	<path class="st9" d="M441,434.1l-80,9.6l-15.8-121.2c-5.4-34,20.9-64.8,55.3-64.8l0,0c34.5,0,60.7,30.8,55.3,64.8L441,434.1z"/>
	<path class="st3" d="M482.7,325.2c-21.9,0-44.8-9-63.6-25.9c-8.5-7.6-9.2-20.7-1.6-29.2s20.7-9.2,29.2-1.6
		c15.4,13.9,34.4,18.9,48.5,12.8c6.6-2.9,12.4-8.3,17.2-16.3c8.9-14.8,6.5-30.6,5.1-36.7c-2.6-11.1,4.3-22.3,15.5-24.9
		c11.1-2.6,22.3,4.3,24.9,15.5c2.6,11,6.7,39.6-10,67.4c-9.3,15.5-21.5,26.6-36.2,33C502.6,323.2,492.8,325.2,482.7,325.2z"/>
	<polygon class="st9" points="517.1,163.5 510.5,247.2 567.3,243.3 544.7,158.8 	"/>
	<path class="st9" d="M485,180.5l-11.9-8.9c-4.4-3.3-6.5-8.8-5.5-14.1l3.2-17.5c0.4-2.3,3.1-3.3,4.9-1.8l1.6,1.3
		c0.6,0.5,1,1.1,1.1,1.9L485,180.5z"/>
	<path class="st5" d="M452.1,675.7c-1.9,0-3.8-0.4-5.6-1.3c-6.1-3.1-8.6-10.6-5.5-16.7l52.5-103.3c3.1-6.1,10.6-8.6,16.7-5.5
		c6.1,3.1,8.6,10.6,5.5,16.7l-52.5,103.3C461,673.2,456.6,675.7,452.1,675.7z"/>
	<path class="st5" d="M440.2,662.5c-0.4,7.3,5.4,13.5,12.8,13.4l4.8-0.1l43.3-0.5c3.7,0,7-2.8,7.6-6.6c0.7-4.3-2.3-8.3-6.5-8.9
		l-23-4l-23.8-4.9C447.8,649.3,440.7,654.8,440.2,662.5L440.2,662.5z"/>
	<path class="st5" d="M123.6,675.7c-2.9,0-5.9-1-8.2-3.1c-5.1-4.5-5.6-12.4-1.1-17.5l98.5-111.7c4.5-5.2,12.4-5.6,17.5-1.1
		c5.1,4.5,5.6,12.4,1.1,17.5l-98.5,111.7C130.4,674.3,127,675.7,123.6,675.7z"/>
	<path class="st5" d="M136.1,662.5c0.4,7.3-5.4,13.5-12.8,13.4l-4.8-0.1l-43.3-0.5c-3.7,0-7-2.8-7.6-6.6c-0.7-4.3,2.3-8.3,6.5-8.9
		l23-4l23.8-4.9C128.4,649.3,135.6,654.8,136.1,662.5L136.1,662.5z"/>
	<path d="M422,461l-70.9,80.8c-0.1,0.2-0.3,0.3-0.4,0.5l-56.2,94.6c-0.6,1.1-1.8,1.7-3.1,1.8l-218.6,1.7c-3.2,0-4.8-3.9-2.6-6.1
		l115.9-115.5c0.3-0.3,0.6-0.5,1-0.7l176.4-83.7c0.9-0.4,1.9-0.5,2.9-0.1l54.2,21.1C422.9,456.2,423.6,459.1,422,461z"/>
	<path d="M430.4,417.5l116.7,102.2c1.1,1,1.5,2.5,1,3.8L510,638.7c-0.5,1.5-1.9,2.5-3.4,2.5l-137.8-0.7c-2.5,0-4.2-2.5-3.3-4.9
		l38.3-98.5c0.2-0.6,0.3-1.2,0.2-1.8l-14.7-104.9c-0.2-1.8,0.9-3.5,2.6-4l35.2-9.6C428.3,416.4,429.5,416.7,430.4,417.5z"/>
	<polygon points="355,258 324.5,288.4 350.6,298.9 382.8,265.8 382.8,224.1 355,224.1 	"/>
	<path class="st3" d="M353.2,405.4l93.9-9.2l-4.1,33.2c-2.6,21.3-20.4,37.5-41.9,38.1l0,0c-21.9,0.6-40.9-15.2-44.1-37L353.2,405.4z
		"/>
	<g>
		<path class="st3" d="M510.9,460.6l-48.5,41.8c-1.4,1.2-3.5,0.9-4.5-0.6l-45.9-70c-0.9-1.4-0.5-3.3,0.9-4.2l26.4-16.5
			c1-0.6,2.2-0.6,3.2,0l67.9,44.6C512.3,457,512.4,459.3,510.9,460.6z"/>
		<path class="st3" d="M305.5,479l-19.8-18c-1.6-1.4-1.2-4,0.7-4.9l76.2-36.5c1.1-0.5,2.5-0.3,3.4,0.6l20,19.7c1.5,1.5,1,4-0.9,4.9
			l-76.4,34.8C307.7,480,306.4,479.8,305.5,479z"/>
		<path class="st3" d="M325.1,477l52.9-41.8c0.3-0.2,0.6-0.4,1-0.5l46.9-14.2c1.8-0.5,3.6,0.7,3.8,2.5l8.7,82.4
			c0.2,2.1-1.7,3.7-3.7,3.2l-108.6-26.4C323.8,481.7,323.1,478.6,325.1,477z"/>
	</g>
	<g>
		<path class="st9" d="M415.6,171.3l11.2-33.5c2.5-7.4,9.2-12.4,17-12.6l0,0c9.5-0.3,17.3-7.8,17.9-17.3l1.2-19l10.3,2.8l-3,24.9
			c-1.1,9.4-9.2,16.4-18.6,16.3l-3.5-0.1c-6.8-0.1-13.1,3.5-16.4,9.4L415.6,171.3z"/>
		<path class="st9" d="M415.7,170.8l19.7-22.5c3.8-4.3,9.3-6.6,15-6.3l8.2,0.5c8.1,0.5,15.6-4.4,18.4-12l7.8-20.9l11.1,3.8l-12,27.7
			c-3.4,7.8-11.6,12.3-20,10.9l-11.3-1.9c-5-0.8-10,0.4-14,3.4L415.7,170.8z"/>
		<path d="M373.2,258l41.7,36.5l50.4-20L437,251.8c-4.1-3.3-6.4-8.2-6.4-13.4v-25.6h-57.4L373.2,258L373.2,258z"/>
		<path class="st3" d="M354.5,196.3v44.3c0,9.6,7.8,17.4,17.4,17.4h15.6c24,0,43.5-19.5,43.5-43.5v-44.3c0-9.6-7.8-17.4-17.4-17.4
			H398C374,152.8,354.5,172.3,354.5,196.3z"/>
		<path class="st5" d="M411.2,212.5v-2.8c0-17.9-14.5-32.5-32.5-32.5l0,0c-7.5,0-14.4,2.5-19.9,6.8c-1.2,3.9-1.8,8.1-1.8,12.4v40.4
			c5.8,5.1,13.3,8.2,21.6,8.2l0,0C396.6,245,411.2,230.4,411.2,212.5z"/>
		<path class="st6" d="M413.6,201.9c0-22.1-16.4-40.3-37.7-43.1c-12.8,7.6-21.4,21.5-21.4,37.4v44.3c0,0.6,0,1.3,0.1,1.9
			c4.8,1.9,10.1,2.9,15.5,2.9C394.2,245.4,413.6,225.9,413.6,201.9z"/>
		<polygon class="st7" points="360.4,219.8 376.1,219.8 376.1,192.8 		"/>
		<rect x="356.6" y="186.7" class="st3" width="73.1" height="3.5"/>
		<rect x="354.5" y="202.4" class="st3" width="75.2" height="3.5"/>
		<rect x="354.5" y="233.7" class="st3" width="60.4" height="3.5"/>
		<path class="st0" d="M398.6,199.3H395c-1.4,0-2.5-1.1-2.5-2.5v-0.2c0-1.4,1.1-2.5,2.5-2.5h3.6c1.4,0,2.5,1.1,2.5,2.5v0.2
			C401.1,198.1,399.9,199.3,398.6,199.3z"/>
		<path class="st0" d="M363.1,199.3h-3.6c-1.4,0-2.5-1.1-2.5-2.5v-0.2c0-1.4,1.1-2.5,2.5-2.5h3.6c1.4,0,2.5,1.1,2.5,2.5v0.2
			C365.6,198.1,364.5,199.3,363.1,199.3z"/>
		<circle cx="393.7" cy="196.6" r="2.6"/>
		<circle cx="358.8" cy="196.6" r="2.6"/>
		<path class="st0" d="M376.2,231.8l-0.4-3.1c0.2,0,0.4-0.1,0.7-0.1c2-0.2,4.7-0.5,7.5-3.1c1.9-1.7,3.2-4.2,3.6-6.8l3.1,0.4
			c-0.5,3.3-2.1,6.5-4.6,8.7c-3.6,3.2-7,3.6-9.3,3.8L376.2,231.8z"/>
		<rect x="354.5" y="218" class="st3" width="75.2" height="3.5"/>
	</g>
	<g>
		<path class="st5" d="M462.6,152.3l-58.5-3.3l-155.5,3.4l-112.5,2.7c-2.1,0.1-3.8,1.8-3.8,3.9l0,0c0,2.1,1.7,3.8,3.8,3.9l112.5,3.1
			l155.5,3.2l58.5-3.3V152.3z"/>
		<path d="M239.5,164.1l0-9.8c0-1.5,1.2-2.8,2.8-2.8h6.4c1.5,0,2.8,1.2,2.8,2.8l0,9.8c0,1.5-1.2,2.8-2.8,2.8h-6.4
			C240.7,166.9,239.5,165.6,239.5,164.1z"/>
		<path d="M132,161.7v-5.5c0-1.3,1.1-2.4,2.4-2.4h6.5c1.3,0,2.4,1.1,2.4,2.4v5.5c0,1.3-1.1,2.4-2.4,2.4h-6.5
			C133.1,164,132,163,132,161.7z"/>
		<polygon points="572,170.2 572,147.9 462.2,152.3 462.2,165.9 		"/>
		<path d="M454.8,185.9l0-52.6c0-1.2,1-2.2,2.2-2.2h5.2c1.2,0,2.2,1,2.2,2.2l0,52.6c0,1.2-1,2.2-2.2,2.2H457
			C455.8,188.1,454.8,187.1,454.8,185.9z"/>
	</g>
	<path class="st9" d="M540,132.9l-18.8,1.3c-5.9,0.4-9.8,6.4-7.6,12l2.3,6c1.7,4.3,6.1,7,10.7,6.4l13.9-1.7c5-0.6,8.8-4.8,8.9-9.9
		l0.1-5.2C549.5,136.7,545.1,132.5,540,132.9z"/>
	<path class="st9" d="M531.7,180.1l-13.8-5.4c-5.1-2-8.6-6.7-9.1-12.1l-1.6-17.7c-0.2-2.3,2.1-4,4.3-3.1l1.9,0.8
		c0.7,0.3,1.2,0.8,1.5,1.5L531.7,180.1z"/>
	<path class="st10" d="M403.6,345.5c-9.4,0-20.4-1.8-31.6-7.7c-13.1-7-24-18.6-30.5-32.8c-4.8-10.4-0.2-22.7,10.1-27.5
		c10.4-4.8,22.7-0.2,27.5,10.1c1.6,3.5,5.3,9.8,12.3,13.5c9.2,4.9,19,2.4,24.9,1c11.5-2.9,18.8-9.5,22-12.4
		c18.5-16.8,21.5-41.9,22-52c0.5-11.4,10.2-20.3,21.6-19.8c11.4,0.5,20.3,10.2,19.8,21.6c-0.7,15.2-5.5,53.6-35.5,80.8
		c-4.5,4.1-18.1,16.4-39.6,21.9C421.9,343.4,413.7,345.5,403.6,345.5z"/>
	<g>
		<path class="st9" d="M505.4,137.1l-19-3.9c-5.6-1.1-10.8,3.2-10.6,9l1.2,32.5l25.8,2l9.2-28.2
			C513.7,143.5,510.6,138.2,505.4,137.1z"/>
		<polygon class="st9" points="476.6,167.8 450.8,247.7 506.9,257.1 504.6,169.7 		"/>
	</g>
	<polygon points="355,258 324.5,288.4 350.6,298.9 382.8,265.8 	"/>
</g>
</svg>
